<svg width="27" height="27" viewBox="0 0 27 27" fill="none" xmlns="http://www.w3.org/2000/svg">
<g filter="url(#filter0_d_14_13)">
<path d="M13.5911 0.326172C11.1487 0.326172 10.8416 0.337422 9.88194 0.380172C8.92231 0.425172 8.26869 0.575922 7.69606 0.798672C7.09542 1.02459 6.55137 1.37898 6.10194 1.83705C5.64415 2.28671 5.28981 2.83069 5.06356 3.43117C4.84081 4.00267 4.68894 4.65742 4.64506 5.61367C4.60231 6.57555 4.59106 6.88155 4.59106 9.3273C4.59106 11.7708 4.60231 12.0768 4.64506 13.0364C4.69006 13.9949 4.84081 14.6485 5.06356 15.2212C5.29419 15.8129 5.60131 16.3147 6.10194 16.8153C6.60144 17.3159 7.10319 17.6242 7.69494 17.8537C8.26869 18.0764 8.92119 18.2283 9.87969 18.2722C10.8404 18.3149 11.1464 18.3262 13.5911 18.3262C16.0357 18.3262 16.3406 18.3149 17.3013 18.2722C18.2587 18.2272 18.9146 18.0764 19.4872 17.8537C20.0874 17.6276 20.6311 17.2733 21.0802 16.8153C21.5808 16.3147 21.8879 15.8129 22.1186 15.2212C22.3402 14.6485 22.4921 13.9949 22.5371 13.0364C22.5798 12.0768 22.5911 11.7708 22.5911 9.32617C22.5911 6.88155 22.5798 6.57555 22.5371 5.6148C22.4921 4.65742 22.3402 4.00267 22.1186 3.43117C21.8924 2.83068 21.538 2.28668 21.0802 1.83705C20.6309 1.37881 20.0868 1.0244 19.4861 0.798672C18.9123 0.575922 18.2576 0.424047 17.3002 0.380172C16.3394 0.337422 16.0346 0.326172 13.5888 0.326172H13.5922H13.5911ZM12.7844 1.94842H13.5922C15.9952 1.94842 16.2798 1.9563 17.2282 2.00017C18.1057 2.03955 18.5827 2.18692 18.8999 2.30955C19.3196 2.47267 19.6199 2.66842 19.9349 2.98342C20.2499 3.29842 20.4446 3.59767 20.6077 4.01842C20.7314 4.33455 20.8777 4.81155 20.9171 5.68905C20.9609 6.63742 20.9699 6.92205 20.9699 9.32392C20.9699 11.7258 20.9609 12.0115 20.9171 12.9599C20.8777 13.8374 20.7303 14.3133 20.6077 14.6305C20.4634 15.0213 20.2331 15.3747 19.9338 15.6644C19.6188 15.9794 19.3196 16.174 18.8988 16.3372C18.5838 16.4609 18.1068 16.6072 17.2282 16.6477C16.2798 16.6904 15.9952 16.7005 13.5922 16.7005C11.1892 16.7005 10.9034 16.6904 9.95506 16.6477C9.07756 16.6072 8.60169 16.4609 8.28444 16.3372C7.8935 16.1931 7.53983 15.9632 7.24944 15.6644C6.94991 15.3742 6.71925 15.0205 6.57444 14.6294C6.45181 14.3133 6.30444 13.8363 6.26506 12.9588C6.22231 12.0104 6.21331 11.7258 6.21331 9.32167C6.21331 6.91867 6.22231 6.63517 6.26506 5.6868C6.30556 4.8093 6.45181 4.3323 6.57556 4.01505C6.73869 3.59542 6.93444 3.29505 7.24944 2.98005C7.56444 2.66505 7.86369 2.47042 8.28444 2.3073C8.60169 2.18355 9.07756 2.0373 9.95506 1.9968C10.7853 1.95855 11.1071 1.9473 12.7844 1.94617V1.94842ZM18.3959 3.44242C18.2541 3.44242 18.1137 3.47036 17.9826 3.52463C17.8516 3.57891 17.7326 3.65846 17.6323 3.75875C17.532 3.85903 17.4524 3.97809 17.3981 4.10912C17.3439 4.24016 17.3159 4.38059 17.3159 4.52242C17.3159 4.66425 17.3439 4.80469 17.3981 4.93572C17.4524 5.06675 17.532 5.18581 17.6323 5.2861C17.7326 5.38638 17.8516 5.46594 17.9826 5.52021C18.1137 5.57449 18.2541 5.60242 18.3959 5.60242C18.6824 5.60242 18.9571 5.48864 19.1596 5.2861C19.3622 5.08356 19.4759 4.80886 19.4759 4.52242C19.4759 4.23599 19.3622 3.96129 19.1596 3.75875C18.9571 3.55621 18.6824 3.44242 18.3959 3.44242ZM13.5922 4.70467C12.9791 4.69511 12.3703 4.80759 11.8012 5.03558C11.232 5.26357 10.7139 5.6025 10.277 6.03265C9.84007 6.4628 9.4931 6.97556 9.25626 7.54109C9.01942 8.10662 8.89745 8.71361 8.89745 9.32673C8.89745 9.93985 9.01942 10.5469 9.25626 11.1124C9.4931 11.6779 9.84007 12.1907 10.277 12.6208C10.7139 13.051 11.232 13.3899 11.8012 13.6179C12.3703 13.8459 12.9791 13.9584 13.5922 13.9488C14.8055 13.9299 15.9628 13.4346 16.8142 12.5698C17.6655 11.7051 18.1427 10.5402 18.1427 9.32673C18.1427 8.11323 17.6655 6.94839 16.8142 6.08364C15.9628 5.21889 14.8055 4.7236 13.5922 4.70467ZM13.5922 6.3258C14.3879 6.3258 15.1511 6.64191 15.7138 7.20459C16.2765 7.76727 16.5926 8.53042 16.5926 9.32617C16.5926 10.1219 16.2765 10.8851 15.7138 11.4478C15.1511 12.0104 14.3879 12.3265 13.5922 12.3265C12.7964 12.3265 12.0333 12.0104 11.4706 11.4478C10.9079 10.8851 10.5918 10.1219 10.5918 9.32617C10.5918 8.53042 10.9079 7.76727 11.4706 7.20459C12.0333 6.64191 12.7964 6.3258 13.5922 6.3258Z" fill="white"/>
</g>
<defs>
<filter id="filter0_d_14_13" x="0.591064" y="0.326172" width="26" height="26" filterUnits="userSpaceOnUse" color-interpolation-filters="sRGB">
<feFlood flood-opacity="0" result="BackgroundImageFix"/>
<feColorMatrix in="SourceAlpha" type="matrix" values="0 0 0 0 0 0 0 0 0 0 0 0 0 0 0 0 0 0 127 0" result="hardAlpha"/>
<feOffset dy="4"/>
<feGaussianBlur stdDeviation="2"/>
<feComposite in2="hardAlpha" operator="out"/>
<feColorMatrix type="matrix" values="0 0 0 0 0 0 0 0 0 0 0 0 0 0 0 0 0 0 0.25 0"/>
<feBlend mode="normal" in2="BackgroundImageFix" result="effect1_dropShadow_14_13"/>
<feBlend mode="normal" in="SourceGraphic" in2="effect1_dropShadow_14_13" result="shape"/>
</filter>
</defs>
</svg>
