<svg width="21" height="16" viewBox="0 0 21 16" fill="none" xmlns="http://www.w3.org/2000/svg">
<path d="M8.59106 11.5405L13.7811 8.32617L8.59106 5.11189V11.5405ZM20.1511 3.15117C20.2811 3.65474 20.3711 4.32974 20.4311 5.18689C20.5011 6.04403 20.5311 6.78331 20.5311 7.42617L20.5911 8.32617C20.5911 10.6726 20.4311 12.3976 20.1511 13.5012C19.9011 14.4655 19.3211 15.0869 18.4211 15.3547C17.9511 15.494 17.0911 15.5905 15.7711 15.6547C14.4711 15.7297 13.2811 15.7619 12.1811 15.7619L10.5911 15.8262C6.40106 15.8262 3.79106 15.6547 2.76106 15.3547C1.86106 15.0869 1.28106 14.4655 1.03106 13.5012C0.901065 12.9976 0.811065 12.3226 0.751065 11.4655C0.681065 10.6083 0.651064 9.86903 0.651064 9.22617L0.591064 8.32617C0.591064 5.97974 0.751065 4.25474 1.03106 3.15117C1.28106 2.18689 1.86106 1.56546 2.76106 1.2976C3.23106 1.15831 4.09106 1.06189 5.41106 0.9976C6.71106 0.9226 7.90106 0.890458 9.00106 0.890458L10.5911 0.826172C14.7811 0.826172 17.3911 0.9976 18.4211 1.2976C19.3211 1.56546 19.9011 2.18689 20.1511 3.15117Z" fill="white"/>
</svg>
